<?xml version="1.0" encoding="utf-8"?>
<!-- Generator: Adobe Illustrator 21.1.0, SVG Export Plug-In . SVG Version: 6.00 Build 0)  -->
<svg version="1.1" id="Layer_1" xmlns="http://www.w3.org/2000/svg" xmlns:xlink="http://www.w3.org/1999/xlink" x="0px" y="0px"
	 viewBox="0 0 482.4 590.2" style="enable-background:new 0 0 482.4 590.2;" xml:space="preserve">
<style type="text/css">
	.st0{display:none;}
	.st1{fill:url(#SVGID_1_);}
	.st2{fill:#1E2530;}
</style>
<g id="Layer_1_1_" class="st0">
	
		<image style="display:inline;overflow:visible;enable-background:new    ;" width="665" height="623" xlink:href="193C26D8.png"  transform="matrix(1 0 0 1 -59.8 -9.8004)">
	</image>
</g>
<g id="Layer_2">
	
		<linearGradient id="SVGID_1_" gradientUnits="userSpaceOnUse" x1="85.2078" y1="436.7325" x2="393.067" y2="258.9899" gradientTransform="matrix(1 0 0 -1 0 590.3992)">
		<stop  offset="0" style="stop-color:#F57342"/>
		<stop  offset="1" style="stop-color:#E34B66"/>
	</linearGradient>
	<path class="st1" d="M387.7,240.7c-7-15-10-30-56-72c-24-23-53-39-107-102c-25-29.9-28-52.3-27.4-63.3c0.2-3.3-4.1-4.7-5.9-1.9
		c-20.8,32.7-8.1,192.4-31.7,193.3c-8,0-13-5-23-33c-12-31-19-52-23-53c-12-3-18,86-18,86s-7,82-5,105c2,20,8,63,57,104
		c9,7,40,37,106,33c11-1,50-5,79-28c2-2,34-23,52-65C389.7,332.7,405.7,281.7,387.7,240.7z M298.2,370.2c-18.2,0-33-14.8-33-33
		s14.8-33,33-33s33,14.8,33,33S316.4,370.2,298.2,370.2z"/>
	<g>
		<path class="st2" d="M53.6,571.6c0,9.6-6.2,18.6-26.8,18.6S0,581.2,0,571.6v-42.2c0-9.6,6.2-18.6,26.8-18.6s26.8,9,26.8,18.6v5.5
			c0,2.1-0.7,2.9-2.6,2.9h-9.5c-2.1,0-2.9-0.8-2.9-2.9v-2.7c0-5.7-4-8.6-11.6-8.6s-11.5,2.9-11.5,8.6v36.7c0,5.7,3.9,8.6,11.5,8.6
			s11.6-2.9,11.6-8.6v-4.3c0-2.1,0.8-2.9,2.9-2.9H51c1.9,0,2.6,0.8,2.6,2.9V571.6z"/>
		<path class="st2" d="M90.6,586.3c0,2.1-0.7,3-2.7,3H78c-2.1,0-2.7-0.9-2.7-3v-71.6c0-2.1,0.7-3,2.7-3h9.9c2.1,0,2.7,0.9,2.7,3
			V586.3z"/>
		<path class="st2" d="M170.9,586.4c0,1.9-0.7,2.9-2.7,2.9h-9c-1.5,0-2.1-0.3-2.6-1.4l-22-37.7c-1.7-2.9-3.4-6.5-4.6-9.3v45.6
			c0,1.9-0.7,2.9-2.7,2.9h-9c-2.1,0-2.7-0.9-2.7-2.9v-71.8c0-1.9,0.7-2.9,2.7-2.9h9c1.3,0,1.9,0.3,2.4,1.1l22.9,39.3
			c1.4,2.4,3,5.8,3.9,8v-45.6c0-1.9,0.7-2.9,2.7-2.9h9c2.1,0,2.7,0.9,2.7,2.9L170.9,586.4L170.9,586.4z"/>
		<path class="st2" d="M198.3,589.3c-1.8,0-2.4-1-2.4-3v-71.6c0-2.1,0.7-3,2.7-3h24.9c20.6,0,27.8,9,27.8,18.6v40.4
			c0,9.6-7.2,18.6-27.8,18.6H198.3z M211.3,524.5v52h12.2c7.8,0,12.4-2.9,12.4-8.6V533c0-5.7-4.7-8.6-12.4-8.6L211.3,524.5
			L211.3,524.5z"/>
		<path class="st2" d="M277.8,589.3c-2.1,0-2.7-0.9-2.7-3v-71.6c0-2.1,0.7-3,2.7-3h23.9c20.6,0,27.6,9,27.6,18.6v10.9
			c0,6.7-3.4,13.1-12.4,16.3l12.2,28.8c0.8,1.8-0.6,3-2.6,3h-10.7c-1.8,0-2.4-1.1-3.2-3l-11.1-26.6h-11.1v26.6c0,2.1-0.7,3-2.7,3
			H277.8z M290.4,524.5V547h11.3c7.6,0,12.3-2.9,12.3-8.6V533c0-5.7-4.7-8.6-12.3-8.6L290.4,524.5L290.4,524.5z"/>
		<path class="st2" d="M365.1,586.4c0,2.1-0.7,2.9-2.7,2.9h-9.7c-2.1,0-2.9-0.8-2.9-2.9v-9.2c0-2.1,0.8-2.8,2.9-2.8h9.7
			c2.1,0,2.7,0.8,2.7,2.8V586.4z"/>
		<path class="st2" d="M403.3,586.3c0,2.1-0.7,3-2.7,3h-9.9c-2.1,0-2.7-0.9-2.7-3v-71.6c0-2.1,0.7-3,2.7-3h9.9c2.1,0,2.7,0.9,2.7,3
			V586.3z"/>
		<path class="st2" d="M427,529.4c0-9.6,7.1-18.6,27.7-18.6c20.6,0,27.7,9,27.7,18.6v42.2c0,9.6-7.1,18.6-27.7,18.6
			c-20.6,0-27.7-9-27.7-18.6V529.4z M467,532.2c0-5.7-4.7-8.6-12.3-8.6c-7.6,0-12.2,2.9-12.2,8.6v36.7c0,5.7,4.6,8.6,12.2,8.6
			c7.6,0,12.3-2.9,12.3-8.6V532.2z"/>
	</g>
</g>
<g id="Layer_3">
</g>
</svg>
